# xmcd
#
# Track frame offsets: 
#        200
#        43717
#        77970
#        111405
#        126210
#        141857
#        164757
#        203292
#        235092
#        245735
#        280182
#
# Disc length: 4324 seconds
#
# Revision: 3
# Processed by: cddbd v1.5.2PL0 Copyright (c) Steve Scherf et al.
# Submitted via: ExactAudioCopyFreeDBPlugin 1.0
#
DISCID=9f10e20b
DTITLE=James Booker - Resurrection of the Bayou Maharajah
DYEAR=1993
DGENRE=Rhythm and Blues
TTITLE0=Medley:  Slow Down - Bony Maronie - Knock on Wood - Grapevine 
TTITLE0=Classified
TTITLE1=Medley:  Tico Tico - Papa Was a Rascal
TTITLE2=Medley:  Lawdy Miss Clawdy - Ballad at the Maple Leaf
TTITLE3=Minute Waltz
TTITLE4=All By Myself
TTITLE5=Save Your Love for Me
TTITLE6=Junco Partner
TTITLE7=St. James Infirmary
TTITLE8=Gitanarias
TTITLE9=Medley:  Life - Wine Spo-Dee-O-Dee - It Should Have Been Me
TTITLE10=Pop's Dilemma - Irene Goodnight
EXTD=
EXTT0=
EXTT1=
EXTT2=
EXTT3=
EXTT4=
EXTT5=
EXTT6=
EXTT7=
EXTT8=
EXTT9=
EXTT10=
PLAYORDER=
